# xmcd CD database file
#
# Track frame offsets:
#	150
#	22537
#	38045
#	56337
#	75912
#	92612
#	110737
#	135575
#	149387
#	171700
#	182050
#
# Disc length: 2725 seconds
#
# Revision: 2
# Processed by: cddbd v1.4PL0 Copyright (c) Steve Scherf et al.
# Submitted via: CDex 1.40Release
#
DISCID=860aa30b
DTITLE=Sven Zetterberg - Chicago Express - Permanently Blue
DYEAR=1995
DGENRE=Blues
TTITLE0=I Think You Need A Shrink
TTITLE1=Fortune Teller
TTITLE2=What Can A Man Do?
TTITLE3=The Soul Of A Man
TTITLE4=Permanently Blue
TTITLE5=Barroom Furniture
TTITLE6=All For Business
TTITLE7=Cha Cha Cha In Blues (cut My Toenail)
TTITLE8=The Flipside Of Blues
TTITLE9=Rockin' Man
TTITLE10=Sweet Woman's Love
EXTD=YEAR: 1995 ID3G: 0
EXTT0=
EXTT1=
EXTT2=
EXTT3=
EXTT4=
EXTT5=
EXTT6=
EXTT7=
EXTT8=
EXTT9=
EXTT10=
PLAYORDER=
